<svg width="48" height="48" viewBox="0 0 48 48" fill="none" xmlns="http://www.w3.org/2000/svg">
<rect width="48" height="48" transform="matrix(1 0 0 -1 0 48)" fill="#0D0D0D"/>
<rect opacity="0.5" width="2" height="2" transform="matrix(1 0 0 -1 23 25)" fill="#C13CFF"/>
<rect opacity="0.75" width="2" height="2" transform="matrix(-4.37114e-08 -1 -1 4.37114e-08 46 46)" fill="#C13CFF"/>
<rect opacity="0.75" width="2" height="2" transform="matrix(-4.37114e-08 -1 -1 4.37114e-08 4 46)" fill="#C13CFF"/>
<rect opacity="0.75" width="2" height="2" transform="matrix(-4.37114e-08 -1 -1 4.37114e-08 4 4)" fill="#C13CFF"/>
<rect opacity="0.75" width="2" height="2" transform="matrix(-4.37114e-08 -1 -1 4.37114e-08 19 5)" fill="#C13CFF"/>
<rect opacity="0.4" width="2" height="2" transform="matrix(-4.37114e-08 -1 -1 4.37114e-08 14 7)" fill="#C13CFF"/>
<rect opacity="0.4" width="2" height="2" transform="matrix(-4.37114e-08 -1 -1 4.37114e-08 7 14)" fill="#C13CFF"/>
<rect opacity="0.75" width="2" height="2" transform="matrix(-4.37114e-08 -1 -1 4.37114e-08 5 19)" fill="#C13CFF"/>
<rect opacity="0.4" width="2" height="2" transform="matrix(-4.37114e-08 -1 -1 4.37114e-08 4 25)" fill="#C13CFF"/>
<rect opacity="0.4" width="2" height="2" transform="matrix(-4.37114e-08 -1 -1 4.37114e-08 46 25)" fill="#C13CFF"/>
<rect opacity="0.75" width="2" height="2" transform="matrix(-4.37114e-08 -1 -1 4.37114e-08 10 10)" fill="#C13CFF"/>
<rect opacity="0.4" width="2" height="2" transform="matrix(-4.37114e-08 -1 -1 4.37114e-08 25 4)" fill="#C13CFF"/>
<rect opacity="0.75" width="2" height="2" transform="matrix(4.37114e-08 1 1 -4.37114e-08 29 43)" fill="#C13CFF"/>
<rect opacity="0.4" width="2" height="2" transform="matrix(4.37114e-08 1 1 -4.37114e-08 34 41)" fill="#C13CFF"/>
<rect opacity="0.4" width="2" height="2" transform="matrix(4.37114e-08 1 1 -4.37114e-08 41 34)" fill="#C13CFF"/>
<rect opacity="0.75" width="2" height="2" transform="matrix(4.37114e-08 1 1 -4.37114e-08 43 29)" fill="#C13CFF"/>
<rect opacity="0.75" width="2" height="2" transform="matrix(4.37114e-08 1 1 -4.37114e-08 38 38)" fill="#C13CFF"/>
<rect opacity="0.4" width="2" height="2" transform="matrix(4.37114e-08 1 1 -4.37114e-08 23 44)" fill="#C13CFF"/>
<rect opacity="0.75" x="29" y="5" width="2" height="2" transform="rotate(-90 29 5)" fill="#C13CFF"/>
<rect opacity="0.4" x="34" y="7" width="2" height="2" transform="rotate(-90 34 7)" fill="#C13CFF"/>
<rect opacity="0.4" x="41" y="14" width="2" height="2" transform="rotate(-90 41 14)" fill="#C13CFF"/>
<rect opacity="0.75" x="43" y="19" width="2" height="2" transform="rotate(-90 43 19)" fill="#C13CFF"/>
<rect opacity="0.75" x="38" y="10" width="2" height="2" transform="rotate(-90 38 10)" fill="#C13CFF"/>
<rect opacity="0.75" x="19" y="43" width="2" height="2" transform="rotate(90 19 43)" fill="#C13CFF"/>
<rect opacity="0.4" x="14" y="41" width="2" height="2" transform="rotate(90 14 41)" fill="#C13CFF"/>
<rect opacity="0.4" x="7" y="34" width="2" height="2" transform="rotate(90 7 34)" fill="#C13CFF"/>
<rect opacity="0.75" x="5" y="29" width="2" height="2" transform="rotate(90 5 29)" fill="#C13CFF"/>
<rect opacity="0.75" x="10" y="38" width="2" height="2" transform="rotate(90 10 38)" fill="#C13CFF"/>
<rect opacity="0.75" width="2" height="2" transform="matrix(-4.37114e-08 -1 -1 4.37114e-08 46 4)" fill="#C13CFF"/>
<rect opacity="0.5" width="2" height="2" transform="matrix(-4.37114e-08 -1 -1 4.37114e-08 41 5)" fill="#C13CFF"/>
<rect opacity="0.5" width="2" height="2" transform="matrix(-4.37114e-08 -1 -1 4.37114e-08 9 5)" fill="#C13CFF"/>
<rect opacity="0.5" width="2" height="2" transform="matrix(-4.37114e-08 -1 -1 4.37114e-08 45 9)" fill="#C13CFF"/>
<rect opacity="0.5" width="2" height="2" transform="matrix(-4.37114e-08 -1 -1 4.37114e-08 5 9)" fill="#C13CFF"/>
<rect opacity="0.5" x="41" y="43" width="2" height="2" transform="rotate(90 41 43)" fill="#C13CFF"/>
<rect opacity="0.5" x="9" y="43" width="2" height="2" transform="rotate(90 9 43)" fill="#C13CFF"/>
<rect opacity="0.5" x="45" y="39" width="2" height="2" transform="rotate(90 45 39)" fill="#C13CFF"/>
<rect opacity="0.5" x="5" y="39" width="2" height="2" transform="rotate(90 5 39)" fill="#C13CFF"/>
<rect width="2" height="2" transform="matrix(-4.37114e-08 -1 -1 4.37114e-08 22 28)" fill="#C13CFF"/>
<rect width="2" height="2" transform="matrix(-4.37114e-08 -1 -1 4.37114e-08 18 29)" fill="#C13CFF"/>
<rect width="2" height="2" transform="matrix(1.31134e-07 1 1 -1.31134e-07 30 19)" fill="#C13CFF"/>
<rect width="2" height="2" transform="matrix(-1 8.74228e-08 8.74228e-08 1 29 30)" fill="#C13CFF"/>
<rect width="2" height="2" transform="matrix(1 -1.74846e-07 -1.74846e-07 -1 19 18)" fill="#C13CFF"/>
<rect width="2" height="2" transform="matrix(-4.37114e-08 -1 -1 4.37114e-08 21 32)" fill="#C13CFF"/>
<rect width="2" height="2" transform="matrix(1.31134e-07 1 1 -1.31134e-07 27 16)" fill="#C13CFF"/>
<rect width="2" height="2" transform="matrix(-1 8.74228e-08 8.74228e-08 1 32 27)" fill="#C13CFF"/>
<rect width="2" height="2" transform="matrix(1 -1.74846e-07 -1.74846e-07 -1 16 21)" fill="#C13CFF"/>
<rect width="2" height="2" transform="matrix(-4.37114e-08 -1 -1 4.37114e-08 19 31)" fill="#C13CFF"/>
<rect width="2" height="2" transform="matrix(-4.37114e-08 -1 -1 4.37114e-08 14 30)" fill="#C13CFF"/>
<rect width="2" height="2" transform="matrix(-4.37114e-08 -1 -1 4.37114e-08 20 36)" fill="#C13CFF"/>
<rect width="2" height="2" transform="matrix(-4.37114e-08 -1 -1 4.37114e-08 15 32)" fill="#C13CFF"/>
<rect width="1" height="1" transform="matrix(-4.37114e-08 -1 -1 4.37114e-08 16 33)" fill="#C13CFF"/>
<rect width="1" height="1" transform="matrix(-4.37114e-08 -1 -1 4.37114e-08 16 34)" fill="#C13CFF"/>
<rect width="1" height="1" transform="matrix(-4.37114e-08 -1 -1 4.37114e-08 15 33)" fill="#C13CFF"/>
<rect width="1" height="1" transform="matrix(-1 8.74228e-08 8.74228e-08 1 33 32)" fill="#C13CFF"/>
<rect width="1" height="1" transform="matrix(-1 8.74228e-08 8.74228e-08 1 34 32)" fill="#C13CFF"/>
<rect width="1" height="1" transform="matrix(-1 8.74228e-08 8.74228e-08 1 33 33)" fill="#C13CFF"/>
<rect width="1" height="1" transform="matrix(1.31134e-07 1 1 -1.31134e-07 32 15)" fill="#C13CFF"/>
<rect width="1" height="1" transform="matrix(1.31134e-07 1 1 -1.31134e-07 32 14)" fill="#C13CFF"/>
<rect width="1" height="1" transform="matrix(1.31134e-07 1 1 -1.31134e-07 33 15)" fill="#C13CFF"/>
<rect width="1" height="1" transform="matrix(1 0 0 -1 15 16)" fill="#C13CFF"/>
<rect width="1" height="1" transform="matrix(1 0 0 -1 14 16)" fill="#C13CFF"/>
<rect width="1" height="1" transform="matrix(1 0 0 -1 15 15)" fill="#C13CFF"/>
<rect width="2" height="2" transform="matrix(-4.37114e-08 -1 -1 4.37114e-08 18 35)" fill="#C13CFF"/>
<rect width="2" height="2" transform="matrix(-4.37114e-08 -1 -1 4.37114e-08 19 40)" fill="#C13CFF"/>
<rect x="8" y="29" width="2" height="2" fill="#C13CFF"/>
<rect x="11" y="33" width="1" height="2" fill="#C13CFF"/>
<rect x="10" y="33" width="1" height="2" fill="#C13CFF"/>
<rect x="12" y="35" width="1" height="1" fill="#C13CFF"/>
<rect x="11" y="35" width="1" height="1" fill="#C13CFF"/>
<rect x="12" y="36" width="1" height="1" fill="#C13CFF"/>
<rect x="12" y="34" width="1" height="1" fill="#C13CFF"/>
<rect x="14" y="36" width="1" height="1" fill="#C13CFF"/>
<rect x="13" y="36" width="1" height="1" fill="#C13CFF"/>
<rect x="13" y="37" width="2" height="1" fill="#C13CFF"/>
<rect x="13" y="35" width="1" height="1" fill="#C13CFF"/>
<rect x="37" y="15" width="1" height="2" transform="rotate(-180 37 15)" fill="#C13CFF"/>
<rect x="38" y="15" width="1" height="2" transform="rotate(-180 38 15)" fill="#C13CFF"/>
<rect x="36" y="13" width="1" height="1" transform="rotate(-180 36 13)" fill="#C13CFF"/>
<rect x="37" y="13" width="1" height="1" transform="rotate(-180 37 13)" fill="#C13CFF"/>
<rect x="36" y="12" width="1" height="1" transform="rotate(-180 36 12)" fill="#C13CFF"/>
<rect x="36" y="14" width="1" height="1" transform="rotate(-180 36 14)" fill="#C13CFF"/>
<rect x="34" y="12" width="1" height="1" transform="rotate(-180 34 12)" fill="#C13CFF"/>
<rect x="35" y="12" width="1" height="1" transform="rotate(-180 35 12)" fill="#C13CFF"/>
<rect x="35" y="11" width="2" height="1" transform="rotate(-180 35 11)" fill="#C13CFF"/>
<rect x="35" y="13" width="1" height="1" transform="rotate(-180 35 13)" fill="#C13CFF"/>
<rect x="33" y="37" width="1" height="2" transform="rotate(-90 33 37)" fill="#C13CFF"/>
<rect x="33" y="38" width="1" height="2" transform="rotate(-90 33 38)" fill="#C13CFF"/>
<rect x="35" y="36" width="1" height="1" transform="rotate(-90 35 36)" fill="#C13CFF"/>
<rect x="35" y="37" width="1" height="1" transform="rotate(-90 35 37)" fill="#C13CFF"/>
<rect x="36" y="36" width="1" height="1" transform="rotate(-90 36 36)" fill="#C13CFF"/>
<rect x="34" y="36" width="1" height="1" transform="rotate(-90 34 36)" fill="#C13CFF"/>
<rect x="36" y="34" width="1" height="1" transform="rotate(-90 36 34)" fill="#C13CFF"/>
<rect x="36" y="35" width="1" height="1" transform="rotate(-90 36 35)" fill="#C13CFF"/>
<rect x="37" y="35" width="2" height="1" transform="rotate(-90 37 35)" fill="#C13CFF"/>
<rect x="35" y="35" width="1" height="1" transform="rotate(-90 35 35)" fill="#C13CFF"/>
<rect x="15" y="11" width="1" height="2" transform="rotate(90 15 11)" fill="#C13CFF"/>
<rect x="15" y="10" width="1" height="2" transform="rotate(90 15 10)" fill="#C13CFF"/>
<rect x="13" y="12" width="1" height="1" transform="rotate(90 13 12)" fill="#C13CFF"/>
<rect x="13" y="11" width="1" height="1" transform="rotate(90 13 11)" fill="#C13CFF"/>
<rect x="12" y="12" width="1" height="1" transform="rotate(90 12 12)" fill="#C13CFF"/>
<rect x="14" y="12" width="1" height="1" transform="rotate(90 14 12)" fill="#C13CFF"/>
<rect x="12" y="14" width="1" height="1" transform="rotate(90 12 14)" fill="#C13CFF"/>
<rect x="12" y="13" width="1" height="1" transform="rotate(90 12 13)" fill="#C13CFF"/>
<rect x="11" y="13" width="2" height="1" transform="rotate(90 11 13)" fill="#C13CFF"/>
<rect x="13" y="13" width="1" height="1" transform="rotate(90 13 13)" fill="#C13CFF"/>
<rect width="2" height="2" transform="matrix(-4.37114e-08 -1 -1 4.37114e-08 17 39)" fill="#C13CFF"/>
<rect x="9" y="31" width="2" height="2" fill="#C13CFF"/>
<rect x="19" y="8" width="2" height="2" transform="rotate(90 19 8)" fill="#C13CFF"/>
<rect width="2" height="2" transform="matrix(1 -8.74228e-08 -8.74228e-08 -1 8 19)" fill="#C13CFF"/>
<rect x="17" y="9" width="2" height="2" transform="rotate(90 17 9)" fill="#C13CFF"/>
<rect width="2" height="2" transform="matrix(1 -8.74228e-08 -8.74228e-08 -1 9 17)" fill="#C13CFF"/>
<rect x="29" y="40" width="2" height="2" transform="rotate(-90 29 40)" fill="#C13CFF"/>
<rect width="2" height="2" transform="matrix(-1 8.74228e-08 8.74228e-08 1 40 29)" fill="#C13CFF"/>
<rect x="31" y="39" width="2" height="2" transform="rotate(-90 31 39)" fill="#C13CFF"/>
<rect width="2" height="2" transform="matrix(-1 8.74228e-08 8.74228e-08 1 39 31)" fill="#C13CFF"/>
<rect width="2" height="2" transform="matrix(4.37114e-08 1 1 -4.37114e-08 29 8)" fill="#C13CFF"/>
<rect x="40" y="19" width="2" height="2" transform="rotate(-180 40 19)" fill="#C13CFF"/>
<rect width="2" height="2" transform="matrix(4.37114e-08 1 1 -4.37114e-08 31 9)" fill="#C13CFF"/>
<rect x="39" y="17" width="2" height="2" transform="rotate(-180 39 17)" fill="#C13CFF"/>
<rect width="2" height="2" transform="matrix(1.31134e-07 1 1 -1.31134e-07 34 18)" fill="#C13CFF"/>
<rect width="2" height="2" transform="matrix(1.31134e-07 1 1 -1.31134e-07 28 12)" fill="#C13CFF"/>
<rect width="2" height="2" transform="matrix(1.31134e-07 1 1 -1.31134e-07 33 16)" fill="#C13CFF"/>
<rect width="2" height="2" transform="matrix(1.31134e-07 1 1 -1.31134e-07 30 13)" fill="#C13CFF"/>
<rect width="2" height="2" transform="matrix(-1 8.74228e-08 8.74228e-08 1 30 34)" fill="#C13CFF"/>
<rect width="2" height="2" transform="matrix(-1 8.74228e-08 8.74228e-08 1 36 28)" fill="#C13CFF"/>
<rect width="2" height="2" transform="matrix(-1 8.74228e-08 8.74228e-08 1 32 33)" fill="#C13CFF"/>
<rect width="2" height="2" transform="matrix(-1 8.74228e-08 8.74228e-08 1 35 30)" fill="#C13CFF"/>
<rect width="2" height="2" transform="matrix(1 -1.74846e-07 -1.74846e-07 -1 18 14)" fill="#C13CFF"/>
<rect width="2" height="2" transform="matrix(1 -1.74846e-07 -1.74846e-07 -1 12 20)" fill="#C13CFF"/>
<rect width="2" height="2" transform="matrix(1 -1.74846e-07 -1.74846e-07 -1 16 15)" fill="#C13CFF"/>
<rect width="2" height="2" transform="matrix(1 -1.74846e-07 -1.74846e-07 -1 13 18)" fill="#C13CFF"/>
<rect width="2" height="2" transform="matrix(1.31134e-07 1 1 -1.31134e-07 29 17)" fill="#C13CFF"/>
<rect width="2" height="2" transform="matrix(-1 8.74228e-08 8.74228e-08 1 31 29)" fill="#C13CFF"/>
<rect width="2" height="2" transform="matrix(1 -1.74846e-07 -1.74846e-07 -1 17 19)" fill="#C13CFF"/>
<rect width="2" height="2" transform="matrix(-4.37114e-08 -1 -1 4.37114e-08 22 22)" fill="#C13CFF"/>
<rect width="2" height="2" transform="matrix(-4.37114e-08 -1 -1 4.37114e-08 28 28)" fill="#C13CFF"/>
<rect width="2" height="2" transform="matrix(-4.37114e-08 -1 -1 4.37114e-08 28 22)" fill="#C13CFF"/>
<rect width="2" height="4" transform="matrix(1 0 0 -1 27 26)" fill="#C13CFF"/>
<rect width="2" height="4" transform="matrix(-4.37114e-08 -1 -1 4.37114e-08 26 21)" fill="#C13CFF"/>
<rect width="2" height="4" transform="matrix(-1 -8.74228e-08 -8.74228e-08 1 21 22)" fill="#C13CFF"/>
<rect width="2" height="4" transform="matrix(-4.37114e-08 1 1 4.37114e-08 22 27)" fill="#C13CFF"/>
<rect width="2" height="6" transform="matrix(1 0 0 -1 31 27)" fill="#C13CFF"/>
<rect width="2" height="6" transform="matrix(-4.37114e-08 -1 -1 4.37114e-08 27 17)" fill="#C13CFF"/>
<rect width="2" height="6" transform="matrix(-1 -8.74228e-08 -8.74228e-08 1 17 21)" fill="#C13CFF"/>
<rect width="2" height="6" transform="matrix(-4.37114e-08 1 1 4.37114e-08 21 31)" fill="#C13CFF"/>
<rect width="2" height="8" transform="matrix(1 0 0 -1 35 28)" fill="#C13CFF"/>
<rect width="2" height="8" transform="matrix(-4.37114e-08 -1 -1 4.37114e-08 28 13)" fill="#C13CFF"/>
<rect width="2" height="8" transform="matrix(-1 -8.74228e-08 -8.74228e-08 1 13 20)" fill="#C13CFF"/>
<rect width="2" height="8" transform="matrix(-4.37114e-08 1 1 4.37114e-08 20 35)" fill="#C13CFF"/>
<rect width="2" height="10" transform="matrix(1 0 0 -1 39 29)" fill="#C13CFF"/>
<rect width="2" height="10" transform="matrix(-4.37114e-08 -1 -1 4.37114e-08 29 9)" fill="#C13CFF"/>
<rect width="2" height="10" transform="matrix(-1 -8.74228e-08 -8.74228e-08 1 9 19)" fill="#C13CFF"/>
<rect width="2" height="10" transform="matrix(-4.37114e-08 1 1 4.37114e-08 19 39)" fill="#C13CFF"/>
</svg>
